<svg width="69" height="11" viewBox="0 0 69 11" fill="none" xmlns="http://www.w3.org/2000/svg">
<path d="M0.193359 10L2.00391 1.43359H4.29492L3.50391 5.08984L4.35352 3.89453L6.22852 1.43359H8.91797L5.68945 5.38281L7.27148 10H4.70508L3.68555 6.61328L3.11719 6.94141L2.48438 10H0.193359ZM9.88969 10.1172C9.15922 10.1172 8.54984 9.98047 8.06156 9.70703C7.57719 9.43359 7.21195 9.05078 6.96586 8.55859C6.71977 8.0625 6.59672 7.48242 6.59672 6.81836C6.59672 6.37305 6.63773 5.92969 6.71977 5.48828C6.8018 5.04688 6.9268 4.62109 7.09477 4.21094C7.26273 3.79688 7.47367 3.41406 7.72758 3.0625C7.98148 2.71094 8.28031 2.4043 8.62406 2.14258C8.96781 1.87695 9.35648 1.66992 9.79008 1.52148C10.2276 1.37305 10.712 1.29883 11.2432 1.29883C12.2979 1.29883 13.0967 1.59961 13.6397 2.20117C14.1866 2.80273 14.46 3.60156 14.46 4.59766C14.46 5.04297 14.419 5.48828 14.337 5.93359C14.2588 6.375 14.1377 6.80273 13.9737 7.2168C13.8135 7.62695 13.6084 8.00781 13.3584 8.35938C13.1084 8.71094 12.8135 9.01953 12.4737 9.28516C12.1377 9.54688 11.7549 9.75195 11.3252 9.90039C10.8955 10.0449 10.417 10.1172 9.88969 10.1172ZM10.0889 8.22461C10.2803 8.22461 10.4639 8.18164 10.6397 8.0957C10.8155 8.00977 10.9795 7.88867 11.1319 7.73242C11.2881 7.57227 11.4268 7.38281 11.5479 7.16406C11.6729 6.94141 11.7803 6.69727 11.8702 6.43164C11.96 6.16211 12.0284 5.875 12.0752 5.57031C12.1221 5.26562 12.1455 4.94922 12.1455 4.62109C12.1455 4.17969 12.0518 3.83203 11.8643 3.57812C11.6768 3.32422 11.4053 3.19727 11.0498 3.19727C10.835 3.19727 10.6338 3.24609 10.4463 3.34375C10.2588 3.44141 10.085 3.57617 9.92484 3.74805C9.76859 3.91992 9.62797 4.12109 9.50297 4.35156C9.37797 4.58203 9.27055 4.83203 9.1807 5.10156C9.09477 5.37109 9.02836 5.65039 8.98148 5.93945C8.93852 6.22852 8.91703 6.51758 8.91703 6.80664C8.91703 7.11523 8.96 7.375 9.04594 7.58594C9.13578 7.79688 9.26664 7.95703 9.43852 8.06641C9.6143 8.17188 9.83109 8.22461 10.0889 8.22461ZM12.9884 10L14.7989 1.43359H17.8341V7.51562H17.8809L20.6817 1.43359H23.7638L21.9298 10H19.8731L20.5587 6.7832C20.6876 6.18555 20.8009 5.69531 20.8985 5.3125C20.9962 4.92969 21.0763 4.625 21.1388 4.39844C21.2052 4.16797 21.252 3.98633 21.2794 3.85352H21.2325L18.4083 10H16.2403V3.85352H16.1934C16.1309 4.25586 16.0704 4.63867 16.0118 5.00195C15.9532 5.36133 15.8966 5.69531 15.8419 6.00391C15.7911 6.3125 15.7403 6.5957 15.6895 6.85352L15.0274 10H12.9884ZM20.9562 10L25.3155 1.43359H28.2628L28.9835 10H26.7511L26.6925 8.39453H24.0675L23.3351 10H20.9562ZM24.9054 6.56641H26.6222L26.5343 4.10547C26.5304 3.91406 26.5265 3.72461 26.5226 3.53711C26.5187 3.34961 26.5187 3.17188 26.5226 3.00391H26.4874C26.4288 3.18359 26.3644 3.35938 26.2941 3.53125C26.2277 3.70312 26.1534 3.87891 26.0714 4.05859L24.9054 6.56641ZM27.9279 10L29.7384 1.43359H32.006C32.9904 1.43359 33.7443 1.62891 34.2677 2.01953C34.7912 2.41016 35.0529 2.99805 35.0529 3.7832C35.0529 4.30664 34.967 4.74414 34.7951 5.0957C34.6232 5.44336 34.4103 5.72266 34.1564 5.93359C33.9025 6.14453 33.6505 6.30469 33.4005 6.41406L34.9474 10H32.4513L31.3088 6.88281H30.881L30.2189 10H27.9279ZM31.2502 5.14258H31.549C31.7013 5.14258 31.8498 5.12109 31.9943 5.07812C32.1388 5.03125 32.2677 4.96094 32.381 4.86719C32.4982 4.76953 32.59 4.64453 32.6564 4.49219C32.7267 4.33594 32.7619 4.14844 32.7619 3.92969C32.7619 3.72266 32.7033 3.54688 32.5861 3.40234C32.4689 3.25781 32.2638 3.18555 31.9709 3.18555H31.6603L31.2502 5.14258ZM37.2785 10.1172C36.5637 10.1172 35.9719 9.97852 35.5031 9.70117C35.0344 9.41992 34.6848 9.0293 34.4543 8.5293C34.2238 8.0293 34.1086 7.44727 34.1086 6.7832C34.1086 6.27148 34.1633 5.75586 34.2727 5.23633C34.382 4.7168 34.552 4.22266 34.7824 3.75391C35.0129 3.28125 35.3078 2.86133 35.6672 2.49414C36.0266 2.12305 36.4543 1.83203 36.9504 1.62109C37.4465 1.40625 38.0168 1.29883 38.6613 1.29883C39.2316 1.29883 39.7434 1.36719 40.1965 1.50391C40.6496 1.63672 41.0773 1.82422 41.4797 2.06641L40.6125 3.85352C40.2492 3.63867 39.9152 3.47852 39.6105 3.37305C39.3059 3.26367 38.9895 3.20898 38.6613 3.20898C38.384 3.20898 38.1281 3.27148 37.8937 3.39648C37.6633 3.52148 37.4562 3.69531 37.2727 3.91797C37.093 4.14062 36.9387 4.39844 36.8098 4.69141C36.6848 4.98047 36.5891 5.29492 36.5227 5.63477C36.4602 5.9707 36.4289 6.31445 36.4289 6.66602C36.4289 7.18555 36.5383 7.57617 36.757 7.83789C36.9797 8.0957 37.2941 8.22461 37.7004 8.22461C38.048 8.22461 38.3879 8.18164 38.7199 8.0957C39.052 8.00977 39.4309 7.87695 39.8566 7.69727V9.58984C39.4387 9.77734 39.0148 9.91211 38.5852 9.99414C38.1594 10.0762 37.7238 10.1172 37.2785 10.1172ZM38.3088 10L42.6682 1.43359H45.6155L46.3362 10H44.1038L44.0452 8.39453H41.4202L40.6877 10H38.3088ZM42.258 6.56641H43.9748L43.887 4.10547C43.883 3.91406 43.8791 3.72461 43.8752 3.53711C43.8713 3.34961 43.8713 3.17188 43.8752 3.00391H43.8401C43.7815 3.18359 43.717 3.35938 43.6467 3.53125C43.5803 3.70312 43.5061 3.87891 43.4241 4.05859L42.258 6.56641ZM47.6517 10L49.4623 1.43359H50.8509L49.2865 8.80469H52.4623L52.2103 10H47.6517ZM54.3795 10.1172C54.0474 10.1172 53.7447 10.0371 53.4712 9.87695C53.2017 9.71289 52.9869 9.46289 52.8267 9.12695C52.6666 8.78711 52.5865 8.35547 52.5865 7.83203C52.5865 7.37891 52.6334 6.9375 52.7271 6.50781C52.8248 6.07812 52.9615 5.67578 53.1373 5.30078C53.317 4.92578 53.5337 4.5957 53.7877 4.31055C54.0416 4.02148 54.3287 3.79688 54.649 3.63672C54.9693 3.47266 55.315 3.39062 55.6861 3.39062C55.9673 3.39062 56.2134 3.43945 56.4244 3.53711C56.6353 3.63086 56.813 3.75781 56.9576 3.91797C57.1021 4.07812 57.2193 4.25586 57.3091 4.45117H57.3619L57.7134 3.51367H58.7681L57.3912 10H56.3423L56.4712 8.95117H56.4244C56.2564 9.16602 56.0689 9.36133 55.8619 9.53711C55.6587 9.71289 55.4341 9.85352 55.188 9.95898C54.942 10.0645 54.6724 10.1172 54.3795 10.1172ZM54.8834 8.99805C55.1568 8.99805 55.4185 8.89648 55.6685 8.69336C55.9185 8.48633 56.1392 8.21289 56.3306 7.87305C56.5259 7.5332 56.6705 7.16016 56.7642 6.75391C56.8111 6.55859 56.8423 6.37305 56.858 6.19727C56.8775 6.02148 56.8873 5.8457 56.8873 5.66992C56.8873 5.33008 56.7974 5.05273 56.6177 4.83789C56.438 4.62305 56.192 4.51562 55.8795 4.51562C55.6646 4.51562 55.4595 4.57617 55.2642 4.69727C55.0728 4.81836 54.899 4.98633 54.7427 5.20117C54.5865 5.41211 54.4498 5.65625 54.3326 5.93359C54.2193 6.21094 54.1314 6.50977 54.0689 6.83008C54.0103 7.14648 53.981 7.46875 53.981 7.79688C53.981 8.19141 54.0591 8.49023 54.2154 8.69336C54.3755 8.89648 54.5982 8.99805 54.8834 8.99805ZM61.1716 10.1172C60.8865 10.1172 60.6365 10.0703 60.4216 9.97656C60.2068 9.88281 60.0271 9.75586 59.8826 9.5957C59.738 9.43555 59.6209 9.25781 59.531 9.0625H59.4783L59.115 10H58.072L60.0056 0.882812H61.3709L60.9548 2.82812C60.9119 3.03906 60.8611 3.26172 60.8025 3.49609C60.7439 3.73047 60.6853 3.94531 60.6267 4.14062C60.572 4.33594 60.5271 4.48047 60.492 4.57422H60.5388C60.7029 4.36719 60.8767 4.17383 61.0603 3.99414C61.2439 3.81445 61.449 3.66992 61.6755 3.56055C61.906 3.45117 62.1658 3.39648 62.4548 3.39648C62.7908 3.39648 63.0955 3.47852 63.3689 3.64258C63.6423 3.80273 63.8591 4.05078 64.0193 4.38672C64.1834 4.72266 64.2654 5.1543 64.2654 5.68164C64.2654 6.12695 64.2185 6.56445 64.1248 6.99414C64.0349 7.42383 63.9021 7.82617 63.7263 8.20117C63.5505 8.57617 63.3377 8.9082 63.0877 9.19727C62.8377 9.48242 62.5505 9.70703 62.2263 9.87109C61.906 10.0352 61.5545 10.1172 61.1716 10.1172ZM60.99 8.99805C61.2127 8.99805 61.4197 8.9375 61.6111 8.81641C61.8025 8.69141 61.9763 8.52148 62.1326 8.30664C62.2888 8.0918 62.4216 7.84375 62.531 7.5625C62.6404 7.28125 62.7244 6.98438 62.783 6.67188C62.8416 6.35547 62.8709 6.03711 62.8709 5.7168C62.8709 5.31836 62.7927 5.01953 62.6365 4.82031C62.4841 4.61719 62.2537 4.51562 61.9451 4.51562C61.7576 4.51562 61.5759 4.56445 61.4002 4.66211C61.2283 4.75586 61.0681 4.88672 60.9197 5.05469C60.7713 5.21875 60.6365 5.41016 60.5154 5.62891C60.3982 5.84375 60.2966 6.07422 60.2107 6.32031C60.1248 6.56641 60.0584 6.81641 60.0115 7.07031C59.9685 7.32422 59.947 7.56836 59.947 7.80273C59.947 8.16211 60.0349 8.45117 60.2107 8.66992C60.3904 8.88867 60.6502 8.99805 60.99 8.99805ZM65.6201 10.1172C65.2138 10.1172 64.8584 10.082 64.5537 10.0117C64.2529 9.94531 63.9814 9.84766 63.7392 9.71875V8.54102C63.9892 8.68945 64.2705 8.81445 64.583 8.91602C64.8994 9.01367 65.2236 9.0625 65.5556 9.0625C65.8134 9.0625 66.038 9.02734 66.2295 8.95703C66.4209 8.88672 66.5693 8.78711 66.6748 8.6582C66.7841 8.52539 66.8388 8.36523 66.8388 8.17773C66.8388 8.04102 66.8076 7.91992 66.7451 7.81445C66.6826 7.70898 66.5752 7.60156 66.4228 7.49219C66.2705 7.38281 66.0595 7.25195 65.79 7.09961C65.5048 6.93945 65.2627 6.77734 65.0634 6.61328C64.8681 6.44531 64.7177 6.25977 64.6123 6.05664C64.5107 5.85352 64.4599 5.61523 64.4599 5.3418C64.4599 4.93164 64.5537 4.58203 64.7412 4.29297C64.9326 4 65.2021 3.77734 65.5498 3.625C65.9013 3.46875 66.3154 3.39062 66.792 3.39062C67.1748 3.39062 67.5361 3.43555 67.8759 3.52539C68.2158 3.61133 68.5302 3.73242 68.8193 3.88867L68.3681 4.9082C68.1533 4.78711 67.915 4.68359 67.6533 4.59766C67.3916 4.50781 67.1103 4.46289 66.8095 4.46289C66.5322 4.46289 66.2998 4.52734 66.1123 4.65625C65.9287 4.78516 65.8369 4.96875 65.8369 5.20703C65.8369 5.33203 65.8662 5.44531 65.9248 5.54688C65.9873 5.64453 66.0908 5.74414 66.2353 5.8457C66.3798 5.94727 66.5771 6.06445 66.8271 6.19727C67.0966 6.3457 67.3369 6.50195 67.5478 6.66602C67.7588 6.83008 67.9248 7.01953 68.0459 7.23438C68.167 7.44531 68.2275 7.70117 68.2275 8.00195C68.2275 8.45898 68.1201 8.8457 67.9052 9.16211C67.6943 9.47461 67.3935 9.71289 67.0029 9.87695C66.6123 10.0371 66.1513 10.1172 65.6201 10.1172Z" fill="#109FBF"/>
</svg>
